<svg width="321" height="299" viewBox="0 0 321 299" fill="none" xmlns="http://www.w3.org/2000/svg">
<path d="M0 10C0 4.47715 4.47715 0 10 0H311C316.523 0 321 4.47715 321 10V289C321 294.523 316.523 299 311 299H10C4.47716 299 0 294.523 0 289V10Z" fill="url(#paint0_linear_22_2)"/>
<path d="M119.781 124.737C119.397 125.139 118.757 125.15 118.359 124.761L104.234 110.943L95.8659 102.052C91.2269 97.1227 88.2062 90.8929 87.2091 84.1981L87.1681 83.923C86.7126 80.8646 86.7126 77.7556 87.1681 74.6973C89.3895 59.7822 101.926 48.5686 116.995 48.0173L117.468 48L118.257 50.2069C119.878 54.7471 121.995 59.0947 124.57 63.1709L122.442 62.7149C120.855 62.3749 119.23 62.2539 117.61 62.3551C115.805 62.4679 114.027 62.8557 112.339 63.505L112.225 63.5489C108.511 64.9773 105.382 67.6066 103.335 71.0185C100.447 75.8318 99.9934 81.7239 102.111 86.9223L102.298 87.3797L103.241 89.1947C105.318 93.1874 108.945 96.1498 113.272 97.3861C117.021 98.6358 121.094 98.5018 124.753 97.0084L125.747 96.6025C131.435 94.2808 135.514 89.177 136.524 83.1169C136.942 80.6085 136.812 78.0284 136.148 75.5735C134.749 70.3949 131.091 66.0943 126.196 63.9L124.57 63.1709C121.995 59.0947 119.878 54.7471 118.257 50.2069L117.468 48H120.011C135.663 48 148.82 59.7496 150.583 75.3012C150.885 77.9624 150.838 80.6517 150.444 83.3007L150.38 83.7298C149.338 90.7237 146.147 97.2203 141.248 102.319L132.962 110.943L119.781 124.737Z" fill="#2C0548"/>
<path d="M141.354 114.494H159.108C171.194 114.959 179.013 127.455 174.146 138.528L173.976 138.914C172.304 142.719 169.248 145.746 165.428 147.384C163.387 148.258 161.191 148.709 158.971 148.709H142.18C138.963 148.709 135.8 149.531 132.99 151.097C122.608 156.883 120.092 170.707 127.769 179.78L128.369 180.489C132.101 184.899 137.585 187.443 143.363 187.443H164.595H190.095V196.481H142.389C137.685 196.481 133.037 195.298 128.901 193.058C107.467 181.447 109.717 149.858 132.668 141.643C135.716 140.551 138.93 139.994 142.168 139.994H158.142C159.942 139.994 161.693 139.411 163.133 138.332L163.457 138.09C168.351 134.426 167.564 126.864 162.02 124.286C160.952 123.789 159.788 123.532 158.61 123.532H141.354V114.494Z" fill="#2C0548"/>
<path d="M211.649 196.207C211.515 196.353 211.284 196.352 211.153 196.203L194.635 177.54C181.848 163.092 192.105 140.316 211.399 140.316C231.068 140.316 241.369 163.683 228.101 178.203L211.649 196.207Z" fill="#2C0548"/>
<path d="M40 218.43H45.1646L57.4304 242.639H59.0443L70.019 218.43H75.8291V252H70.019V231.019L60.3354 252H56.1392L45.1646 231.019V252H40V218.43Z" fill="#2C0548"/>
<path d="M92.2912 218.43L92.614 232.31L88.7406 243.285H96.1646L92.2912 232.31V218.43L102.62 243.285L105.848 252H100.038L98.4241 248.449H87.1267L85.8355 252H80.0254L92.2912 218.43Z" fill="#2C0548"/>
<path d="M107.139 218.43H112.949L121.019 229.728H122.31L130.38 218.43H136.19L125.215 235.215L136.19 252H130.38L122.31 240.38H121.019L112.949 252H107.139L118.114 235.215L107.139 218.43Z" fill="#2C0548"/>
<path d="M142.646 223.696H138.772V218.43H152.329V223.696H148.456V246.734H152.329V252H138.772V246.734H142.646V223.696Z" fill="#2C0548"/>
<path d="M218.177 223.696H214.304V218.43H227.861V223.696H223.987V246.734H227.861V252H214.304V246.734H218.177V223.696Z" fill="#2C0548"/>
<path d="M157.494 218.43H165.775C174.3 218.43 181.472 224.822 182.449 233.291C182.596 234.57 182.596 235.861 182.449 237.139C181.472 245.609 174.3 252 165.775 252H157.494L162.658 246.19H165.917C170.052 246.19 173.833 243.853 175.682 240.155C178.318 234.883 176.294 228.47 171.109 225.668L170.942 225.577C169.318 224.7 167.502 224.241 165.657 224.241H162.658V224.563V246.19L157.494 252V218.43Z" fill="#2C0548"/>
<path d="M188.481 232.31H193.646L188.481 224.24V218.43H193.646L195.259 224.24L200.101 232.633L202.455 231.563C203.232 231.21 203.876 230.616 204.29 229.87L204.414 229.647C204.95 228.683 204.997 227.522 204.54 226.518C203.996 225.32 202.822 224.531 201.507 224.481L195.259 224.24L193.646 218.43H201.736C204.005 218.43 206.19 219.288 207.852 220.832C209.114 222.004 210.013 223.513 210.441 225.181L210.502 225.416C211.748 230.26 209.152 235.266 204.476 237.04L203.329 237.475L211.721 252H205.911L196.873 237.475H194.291V252H188.481V232.31Z" fill="#2C0548"/>
<path d="M243.032 252L229.798 218.43H256.137L243.032 252V237.475L248.519 224.241H237.544L243.032 237.475V252Z" fill="#2C0548"/>
<path d="M260.139 218.43H281.443V223.918H265.627V231.665H278.861V237.797H265.627V245.544H281.443V252H260.139V218.43Z" fill="#2C0548"/>
<defs>
<linearGradient id="paint0_linear_22_2" x1="160.5" y1="0" x2="160.5" y2="299" gradientUnits="userSpaceOnUse">
<stop stop-color="white"/>
<stop offset="0.25" stop-color="white"/>
<stop offset="0.5" stop-color="white"/>
<stop offset="0.9999" stop-color="#7F3C9E" stop-opacity="0.695"/>
<stop offset="1" stop-color="#2C0548"/>
</linearGradient>
</defs>
</svg>
