<svg width="315" height="315" viewBox="0 0 315 315" fill="none" xmlns="http://www.w3.org/2000/svg">
<circle cx="157.5" cy="157.5" r="157.5" fill="url(#paint0_linear_25_2)"/>
<path d="M117.846 160.234C117.461 160.637 116.821 160.648 116.423 160.258L97.9865 142.222L87.1878 130.749C81.2016 124.388 77.3037 116.349 76.0171 107.71L75.9642 107.355C75.3764 103.409 75.3764 99.397 75.9642 95.4504C78.8307 76.2038 95.0077 61.7338 114.454 61.0223L115.064 61L116.081 63.8478C118.173 69.7065 120.905 75.3167 124.228 80.5767L121.482 79.9883C119.434 79.5496 117.336 79.3933 115.247 79.5239C112.917 79.6695 110.623 80.1699 108.445 81.0078L108.298 81.0645C103.505 82.9076 99.4672 86.3005 96.8255 90.7033C93.0988 96.9144 92.5139 104.518 95.2469 111.226L95.4873 111.816L96.7052 114.158C99.3843 119.31 104.066 123.133 109.649 124.728C114.487 126.341 119.742 126.168 124.464 124.241L125.747 123.717C133.087 120.721 138.35 114.135 139.653 106.315C140.193 103.078 140.025 99.749 139.169 96.5811C137.363 89.8987 132.643 84.3491 126.326 81.5175L124.228 80.5767C120.905 75.3167 118.173 69.7065 116.081 63.8478L115.064 61H118.345C138.542 61 155.52 76.1618 157.796 96.2298C158.185 99.6638 158.125 103.134 157.616 106.552L157.533 107.106C156.189 116.131 152.071 124.514 145.749 131.094L135.057 142.222L117.846 160.234Z" fill="#2C0548"/>
<path d="M145.887 146.804H168.796C184.392 147.404 194.482 163.529 188.201 177.818L187.982 178.316C185.824 183.226 181.881 187.133 176.951 189.246C174.318 190.374 171.484 190.956 168.619 190.956H146.952C142.801 190.956 138.719 192.016 135.093 194.037C121.697 201.503 118.45 219.343 128.356 231.05L129.13 231.965C133.946 237.656 141.023 240.939 148.478 240.939H175.876H208.782V252.601H147.222C141.152 252.601 135.154 251.075 129.817 248.184C102.157 233.201 105.061 192.438 134.678 181.837C138.611 180.429 142.758 179.71 146.936 179.71H167.55C169.872 179.71 172.131 178.957 173.99 177.566L174.408 177.253C180.723 172.524 179.708 162.767 172.554 159.44C171.176 158.799 169.674 158.467 168.154 158.467H145.887V146.804Z" fill="#2C0548"/>
<path d="M236.596 252.248C236.423 252.437 236.125 252.434 235.955 252.243L214.64 228.16C198.14 209.516 211.376 180.126 236.273 180.126C261.654 180.126 274.946 210.279 257.825 229.016L236.596 252.248Z" fill="#2C0548"/>
<defs>
<linearGradient id="paint0_linear_25_2" x1="157.5" y1="0" x2="157.5" y2="315" gradientUnits="userSpaceOnUse">
<stop stop-color="white"/>
<stop offset="0.49" stop-color="white" stop-opacity="0.904494"/>
<stop offset="0.59" stop-color="white" stop-opacity="0.7294"/>
<stop offset="0.68" stop-color="white" stop-opacity="0.56"/>
<stop offset="0.75" stop-color="white" stop-opacity="0.507824"/>
<stop offset="0.9997" stop-color="#7F3C9E" stop-opacity="0.383158"/>
<stop offset="0.9998" stop-color="#9400FF" stop-opacity="0"/>
</linearGradient>
</defs>
</svg>
