<svg width="327" height="299" viewBox="0 0 327 299" fill="none" xmlns="http://www.w3.org/2000/svg">
<path d="M0 50C0 22.3858 22.3858 0 50 0H271C298.614 0 321 22.3858 321 50V249C321 276.614 298.614 299 271 299H50C22.3858 299 0 276.614 0 249V50Z" fill="url(#paint0_linear_25_3)"/>
<path d="M104.699 145.268C104.314 145.671 103.675 145.682 103.277 145.292L81 123.5L68.0372 109.727C60.8513 102.092 56.1722 92.442 54.6277 82.0716L54.5642 81.6454C53.8586 76.9079 53.8586 72.0921 54.5642 67.3546C58.0052 44.2508 77.4242 26.8808 100.767 26.0268L101.5 26L102.78 29.5849C105.253 36.5072 108.481 43.1358 112.406 49.3506L112.5 49.5L109.204 48.7937C106.746 48.2671 104.228 48.0795 101.719 48.2363C98.9228 48.4111 96.1695 49.0117 93.5544 50.0175L93.3776 50.0856C87.6249 52.2981 82.7774 56.3709 79.6064 61.6561C75.1328 69.112 74.4307 78.239 77.7113 86.2914L78 87L79.462 89.8114C82.678 95.9961 88.2973 100.585 95 102.5C100.807 104.436 107.116 104.228 112.783 101.915L114.324 101.286C123.135 97.6898 129.453 89.784 131.017 80.3968C131.665 76.5112 131.463 72.5146 130.436 68.7119C128.268 60.6902 122.602 54.0285 115.02 50.6295L112.5 49.5L112.406 49.3506C108.481 43.1358 105.253 36.5072 102.78 29.5849L101.5 26H105.439C129.683 26 150.064 44.2003 152.796 68.2902C153.263 72.4124 153.191 76.5781 152.579 80.6815L152.48 81.3462C150.867 92.1798 145.923 102.243 138.335 110.142L125.5 123.5L104.699 145.268Z" fill="#2C0548"/>
<path d="M138.5 129H166C184.723 129.72 196.834 149.077 189.295 166.229L189.032 166.827C186.441 172.721 181.708 177.411 175.79 179.947C172.63 181.302 169.227 182 165.789 182H139.779C134.796 182 129.896 183.273 125.543 185.699C109.462 194.661 105.564 216.076 117.456 230.13L118.385 231.228C124.166 238.06 132.662 242 141.611 242H174.5H214V256H140.102C132.816 256 125.617 254.167 119.21 250.697C86.007 232.712 89.4925 183.779 125.044 171.054C129.766 169.364 134.744 168.5 139.76 168.5H164.504C167.292 168.5 170.004 167.597 172.236 165.926L172.737 165.551C180.318 159.875 179.099 148.162 170.512 144.168C168.857 143.399 167.055 143 165.23 143H138.5V129Z" fill="#2C0548"/>
<path d="M247.388 255.576C247.181 255.802 246.823 255.8 246.619 255.57L221.032 226.66C201.225 204.28 217.114 169 247 169C277.468 169 293.424 205.196 272.872 227.688L247.388 255.576Z" fill="#2C0548"/>
<defs>
<linearGradient id="paint0_linear_25_3" x1="160.5" y1="0" x2="160.5" y2="299" gradientUnits="userSpaceOnUse">
<stop stop-color="white"/>
<stop offset="0.25" stop-color="white"/>
<stop offset="0.5" stop-color="white"/>
<stop offset="0.9999" stop-color="#7F3C9E" stop-opacity="0.695"/>
<stop offset="1" stop-color="#2C0548"/>
</linearGradient>
</defs>
</svg>
